<?xml version="1.0" encoding="UTF-8" standalone="no"?>
<!DOCTYPE svg PUBLIC "-//W3C//DTD SVG 1.1//EN" "http://www.w3.org/Graphics/SVG/1.1/DTD/svg11.dtd">
<svg width="100%" height="100%" viewBox="0 0 540 540" version="1.1" xmlns="http://www.w3.org/2000/svg" xmlns:xlink="http://www.w3.org/1999/xlink" xml:space="preserve" xmlns:serif="http://www.serif.com/" style="fill-rule:evenodd;clip-rule:evenodd;stroke-linecap:round;stroke-linejoin:round;stroke-miterlimit:1.5;">
    <g>
        <path d="M114.841,214.87C114.841,214.87 66.159,315.424 64.8,348.942C61.702,395.216 96.712,481.021 159.908,483.34C223.103,485.659 335.302,489.103 345.738,486.784C356.174,484.465 465.163,469.138 495.891,339.92C495.177,319.048 496.919,270.874 495.529,239.988C493.075,222.045 487.638,219.176 475.096,216.807C469.639,215.786 435.599,239.273 418.206,244.708L203.417,246.89L217.001,214.353L114.841,214.87Z" style="fill:rgb(211,211,211);"/>
        <path d="M402.485,244.868C402.485,244.868 406.876,303.525 389.254,338.458C376.21,364.316 339.935,386.744 281.058,389.114C238.304,389.114 200.877,370.48 164.492,334.144C165.081,370.662 193.606,449.115 312.017,440.081C342.238,440.182 344.24,441.078 392.403,440.281C392.243,454.698 309.042,486.825 311.089,487.483C317.826,487.672 342.497,487.504 345.738,486.784C356.174,484.465 465.163,469.138 495.891,339.92C498.96,327.653 496.726,310.77 496.495,283.79C496.358,267.741 496.047,251.508 495.529,239.988C493.075,222.045 487.638,219.176 475.096,216.807C469.639,215.786 435.599,239.273 418.206,244.708L402.485,244.868Z" style="fill:rgb(155,155,155);"/>
        <path id="Brust" d="M203.417,246.89L99.976,247.081C85.538,279.514 65.662,327.696 64.8,348.942C61.702,395.216 95.228,481.577 158.423,483.896L159.529,333.498C164.866,303.193 203.417,246.89 203.417,246.89Z" style="fill:rgb(165,105,83);stroke:rgb(211,211,211);stroke-width:1px;"/>
        <path id="mund" d="M48.796,118.477C48.796,118.477 41.643,159.288 78.585,164.452C91.252,166.036 127.751,164.073 127.751,164.073C127.751,164.073 142.175,107.116 140.32,104.102C138.465,101.087 126.869,67.46 126.869,67.46C126.869,67.46 88.906,112.481 78.864,115.001C69.733,117.293 52.434,116.355 48.796,118.477Z" style="fill:rgb(249,194,60);"/>
        <path id="Kopf" d="M182.477,39.709C198.922,39.353 253.21,46.434 255.065,109.978C255.925,139.432 221.64,202.99 217.001,214.353C214.894,215.972 114.841,214.87 114.841,214.87C114.841,214.87 139.063,171.649 136.451,169.275C133.839,166.9 127.751,164.073 127.751,164.073L126.869,67.46C126.869,67.46 141.691,41.253 182.477,39.709Z" style="fill:rgb(68,145,27);"/>
    </g>
    <g transform="matrix(1.51587,0,0,1.51587,42.1659,-9.56893)">
        <circle cx="93.363" cy="79.141" r="11.221"/>
    </g>
</svg>
